HIERARCHY
ROOT root
{
	OFFSET	0	13.1	24.9
	CHANNELS 6  Xposition Yposition Zposition Xrotation Yrotation Zrotation
	JOINT spine_1
	{
		OFFSET	0	9.99999	0
		CHANNELS 3  Xrotation Yrotation Zrotation
		JOINT spine_2
		{
			OFFSET	0	112	-10
			CHANNELS 3  Xrotation Yrotation Zrotation
			JOINT spine_3
			{
				OFFSET	0	206.5	19.3
				CHANNELS 3  Xrotation Yrotation Zrotation
				JOINT spine_4
				{
					OFFSET	0	110.4	14.6
					CHANNELS 3  Xrotation Yrotation Zrotation
					JOINT neck_1
					{
						OFFSET	0	71.8	-50.3
						CHANNELS 3  Xrotation Yrotation Zrotation
						JOINT neck_2
						{
							OFFSET	0	86.2	-25.8
							CHANNELS 3  Xrotation Yrotation Zrotation
							JOINT head_ee
							{
								OFFSET	0	179.8	-8.7
								CHANNELS 3  Xrotation Yrotation Zrotation
								End Site
								{
									OFFSET	1	0	0
								}
							}
						}
					}
					JOINT left_clavicle
					{
						OFFSET	-43.2	22.4	-70.8
						CHANNELS 3  Xrotation Yrotation Zrotation
						JOINT left_shoulder
						{
							OFFSET	-93.9	-5.79999	48.7
							CHANNELS 3  Xrotation Yrotation Zrotation
							JOINT left_elbow
							{
								OFFSET	-291.4	-30.8	15.2
								CHANNELS 3  Xrotation Yrotation Zrotation
								JOINT left_lowarm_twist
								{
									OFFSET	-110.7	-3.89999	13.6
									CHANNELS 3  Xrotation Yrotation Zrotation
									JOINT left_hand
									{
										OFFSET	-110.7	-3.89999	13.6
										CHANNELS 3  Xrotation Yrotation Zrotation
										JOINT left_ee
										{
											OFFSET	-80.8	-5.10001	12.1
											CHANNELS 3  Xrotation Yrotation Zrotation
											End Site
											{
												OFFSET	1	0	0
											}
										}
									}
								}
							}
						}
					}
					JOINT right_clavicle
					{
						OFFSET	43.2	22.4	-70.8
						CHANNELS 3  Xrotation Yrotation Zrotation
						JOINT right_shoulder
						{
							OFFSET	93.9	-5.79999	48.7
							CHANNELS 3  Xrotation Yrotation Zrotation
							JOINT right_elbow
							{
								OFFSET	291.4	-30.8	15.2
								CHANNELS 3  Xrotation Yrotation Zrotation
								JOINT right_lowarm_twist
								{
									OFFSET	110.7	-3.89999	13.6
									CHANNELS 3  Xrotation Yrotation Zrotation
									JOINT right_hand
									{
										OFFSET	110.7	-3.89999	13.6
										CHANNELS 3  Xrotation Yrotation Zrotation
										JOINT right_ee
										{
											OFFSET	80.8	-5.10001	12.1
											CHANNELS 3  Xrotation Yrotation Zrotation
											End Site
											{
												OFFSET	1	0	0
											}
										}
									}
								}
							}
						}
					}
				}
			}
		}
	}
	JOINT left_hip
	{
		OFFSET	-82.8	-127.5	0.300001
		CHANNELS 3  Xrotation Yrotation Zrotation
		JOINT left_knee
		{
			OFFSET	-28.2	-396.7	2.2
			CHANNELS 3  Xrotation Yrotation Zrotation
			JOINT left_ankle
			{
				OFFSET	-11.7	-411.3	35.4
				CHANNELS 3  Xrotation Yrotation Zrotation
				JOINT left_toes
				{
					OFFSET	0	-60	-88.6
					CHANNELS 3  Xrotation Yrotation Zrotation
					JOINT left_foot_ee
					{
						OFFSET	-22.5	-16.5	-42.2
						CHANNELS 3  Xrotation Yrotation Zrotation
						End Site
						{
							OFFSET	1	0	0
						}
					}
				}
			}
		}
	}
	JOINT right_hip
	{
		OFFSET	82.8	-127.5	0.300001
		CHANNELS 3  Xrotation Yrotation Zrotation
		JOINT right_knee
		{
			OFFSET	28.2	-396.7	2.2
			CHANNELS 3  Xrotation Yrotation Zrotation
			JOINT right_ankle
			{
				OFFSET	11.7	-411.3	35.4
				CHANNELS 3  Xrotation Yrotation Zrotation
				JOINT right_toes
				{
					OFFSET	0	-60	-88.6
					CHANNELS 3  Xrotation Yrotation Zrotation
					JOINT right_foot_ee
					{
						OFFSET	22.5	-16.5	-42.2
						CHANNELS 3  Xrotation Yrotation Zrotation
						End Site
						{
							OFFSET	1	0	0
						}
					}
				}
			}
		}
	}
}
MOTION
Frames: 12
Frame Time: 0.02
2977.15 743.165 -421.747 -176.039 -48.0251 -169.749 2.45353 -0.485164 -3.02133 2.45856 -0.292017 -3.04605 2.47335 0.22329 -3.05185 2.46045 -0.261266 -3.04884 -16.3004 14.849 11.0171 -16.4469 22.2514 15.59 -0.0 0.0 -0.0 10.3802 21.5076 17.7932 -27.6418 -40.3135 35.1308 1.28603 -32.4983 0.374838 23.6895 0.217932 -2.99679 -0.450115 -7.55851 -6.25884 -0.0 0.0 -0.0 8.58469 -15.7933 -15.7066 -45.6449 43.0787 -38.547 0.561225 15.5369 -0.076564 7.91154 -0.210827 0.987822 1.35352 28.5171 3.38274 0.0 0.0 0.0 10.456 -12.304 -7.50764 -8.21274 0.250013 1.23453 -3.54315 29.2456 0.558641 5.47696 -0.0 -0.0 -0.0 0.0 -0.0 17.7748 25.6187 -9.54641 2.46228 0.1092 0.362015 -2.96997 9.86499 -0.461056 11.1413 -0.0 -0.0 0.0 0.0 0.0 
2986.78 743.488 -420.125 -175.463 -49.3937 -170.238 2.58755 -0.479274 -3.00395 2.59252 -0.287244 -3.02833 2.60679 0.217953 -3.0341 2.59404 -0.263735 -3.03047 -16.7567 14.9434 14.4972 -16.5807 20.5871 18.8629 -0.0 0.0 -0.0 10.1937 21.3696 17.5256 -27.162 -44.4096 35.4088 1.18721 -30.459 0.323223 25.2181 0.189235 -3.18994 -0.722155 -6.59734 -7.6945 -0.0 0.0 -0.0 7.84161 -14.7872 -14.5481 -43.6706 42.3293 -41.7046 0.522443 14.5101 -0.0665105 8.98565 -0.228865 1.12384 0.756212 28.8612 7.33786 0.0 0.0 0.0 11.1285 -14.3642 -6.01211 -9.90326 0.279362 1.49227 -2.79886 29.9525 0.442789 5.94215 -0.0 -0.0 -0.0 0.0 -0.0 16.8575 23.0226 -7.59601 1.87454 0.0817192 0.276026 -0.754923 10.2343 -0.116826 11.1274 -0.0 -0.0 0.0 0.0 0.0 
2997.69 742.737 -418.583 -174.923 -50.5946 -170.292 2.65698 -0.476224 -3.05407 2.66213 -0.281015 -3.07815 2.67617 0.228625 -3.08248 2.66301 -0.260828 -3.07993 -16.5991 14.9367 14.4448 -16.4191 20.5555 18.7792 -0.0 0.0 -0.0 10.3533 21.7466 17.7057 -27.7533 -47.249 35.6218 1.16317 -29.9495 0.311131 26.2977 0.165868 -3.32586 -0.837595 -3.63977 -7.19418 -0.0 0.0 -0.0 7.99851 -13.5781 -14.9158 -42.3511 41.3128 -43.8899 0.393293 11.0248 -0.0379559 9.95392 -0.242938 1.24672 0.406574 28.4928 9.41853 0.0 0.0 0.0 11.3098 -15.6826 -4.82843 -11.356 0.298498 1.71435 3.12611 28.9046 -0.484938 7.28951 -0.0 -0.0 -0.0 0.0 -0.0 16.8203 21.1882 -5.911 1.02414 0.0435256 0.151129 -1.61337 9.34017 -0.248919 10.7886 -0.0 -0.0 0.0 0.0 0.0 
3005.26 741.105 -417.938 -174.914 -52.498 -170.481 2.67257 -0.447497 -3.12567 2.67797 -0.247796 -3.14779 2.69043 0.272113 -3.14578 2.6767 -0.227865 -3.14929 -16.71 14.488 14.59 -16.484 19.6385 18.767 -0.0 0.0 -0.0 10.3057 22.2131 17.5429 -28.3559 -50.3595 35.2449 1.20681 -30.8706 0.333223 26.5747 0.159459 -3.36067 -0.742854 -1.76179 -5.73467 -0.0 0.0 -0.0 7.55742 -12.4081 -14.2364 -41.0379 40.5784 -46.6153 0.372496 10.455 -0.0340803 10.5198 -0.2502 1.31863 0.385003 28.7501 9.66558 0.0 0.0 0.0 12.3886 -15.9671 -3.7723 -13.3385 0.315515 2.01805 6.96152 29.1587 -1.0711 8.41635 -0.0 -0.0 -0.0 0.0 -0.0 16.6311 19.6157 -4.79408 -0.491733 -0.0199355 -0.0728284 -1.04093 6.18328 -0.157824 11.0929 -0.0 -0.0 0.0 0.0 0.0 
3012.35 741.274 -410.091 -174.235 -53.5843 -170.321 3.07314 -0.394331 -2.9166 3.07785 -0.208023 -2.93576 3.08697 0.256264 -2.93195 3.07504 -0.209794 -2.93564 -17.047 13.8018 14.6304 -16.7807 18.3905 18.6161 -0.0 0.0 -0.0 10.313 22.5137 17.4967 -28.8181 -52.2252 35.3482 1.11893 -28.998 0.289363 25.1137 0.191358 -3.17678 -0.919329 1.25866 -5.59665 -0.0 0.0 -0.0 7.90276 -12.0139 -14.8687 -39.2285 39.4339 -48.5225 0.365397 10.2601 -0.0328039 10.8791 -0.254442 1.36433 0.453381 28.5035 9.12243 0.0 0.0 0.0 12.4302 -16.8427 -3.25786 -13.6233 0.317096 2.06172 5.64543 29.4408 -0.873346 7.33392 -0.0 -0.0 -0.0 0.0 -0.0 17.1932 19.7517 -4.35759 -1.24286 -0.0491762 -0.184391 -0.775471 2.07644 -0.115634 11.8588 -0.0 -0.0 0.0 0.0 0.0 
3016.85 742.228 -411.179 -175.219 -53.6019 -171.862 2.61226 -0.380014 -2.94828 2.61708 -0.191722 -2.96647 2.62603 0.30104 -2.95738 2.61387 -0.169589 -2.96781 -18.0464 12.796 14.9035 -17.7194 16.5937 18.6714 -0.0 0.0 -0.0 10.1633 21.4928 17.4553 -32.6562 -54.8174 31.7571 1.13405 -29.3253 0.296733 26.3371 0.164967 -3.33081 -0.831343 5.16218 -3.29775 -0.0 0.0 -0.0 7.62664 -9.00946 -14.5589 -33.2142 41.3314 -51.5602 0.3827 10.7348 -0.0359564 11.1509 -0.257462 1.39892 0.39563 27.3174 8.99209 0.0 0.0 0.0 13.2289 -17.4445 -1.98317 -16.9442 0.319502 2.57116 6.56104 29.5275 -1.01312 8.51444 -0.0 -0.0 -0.0 0.0 -0.0 16.9696 19.1973 -3.62905 -2.71737 -0.102307 -0.40444 -1.67072 -0.955203 -0.247565 12.1311 -0.0 -0.0 0.0 0.0 0.0 
3019.3 744.409 -403.308 -174.226 -55.4936 -170.807 2.64211 -0.303827 -3.04087 2.64725 -0.109805 -3.05403 2.65198 0.395057 -3.03038 2.63918 -0.0882615 -3.05472 -17.8769 12.8658 15.0073 -17.5369 16.6214 18.7607 -0.0 0.0 -0.0 10.3979 22.3287 17.6636 -29.5211 -55.4217 35.534 1.12813 -29.1975 0.293839 27.049 0.148096 -3.42019 -1.11056 6.42846 -4.56883 -0.0 0.0 -0.0 7.09433 -9.92436 -13.5528 -31.8927 41.9411 -52.9708 0.367681 10.3228 -0.0332121 11.3307 -0.259368 1.42181 0.560698 28.2275 8.31597 0.0 0.0 0.0 13.6514 -18.0666 -2.33865 -17.9472 0.314423 2.72497 8.05458 29.0641 -1.23471 9.29372 -0.0 -0.0 -0.0 0.0 -0.0 17.3288 18.9699 -3.99878 -4.26592 -0.151984 -0.636898 1.75649 -2.18672 0.257418 14.6183 -0.0 -0.0 0.0 0.0 0.0 
3022.48 743.937 -401.047 -173.818 -56.0394 -170.26 2.57586 -0.337188 -3.09823 2.58119 -0.139453 -3.11339 2.58771 0.379044 -3.09339 2.57438 -0.114011 -3.11442 -18.3139 11.9028 14.4062 -17.9858 15.2107 17.9236 -0.0 0.0 -0.0 10.4279 21.7331 17.8253 -29.6482 -55.9577 36.0517 1.07178 -27.9644 0.266879 25.9833 0.172937 -3.28633 -0.674452 6.1438 -1.84226 -0.0 0.0 -0.0 6.58546 -10.1556 -12.6362 -30.8258 43.0868 -53.4852 0.427829 11.9661 -0.0448389 11.4043 -0.260127 1.43117 0.706201 28.5028 7.50204 0.0 0.0 0.0 14.6707 -18.463 -2.44296 -19.7594 0.298424 3.00254 6.76739 29.0889 -1.0413 9.38642 -0.0 -0.0 -0.0 0.0 -0.0 17.5046 18.8497 -3.64933 -4.68732 -0.164412 -0.700375 1.64133 -4.17416 0.239862 14.4523 -0.0 -0.0 0.0 0.0 0.0 
3029.11 743.724 -393.358 -173.947 -57.2254 -170.112 2.51127 -0.335507 -3.11464 2.51665 -0.136734 -3.12965 2.52314 0.387939 -3.10855 2.50968 -0.107617 -3.13079 -17.1176 12.1794 14.0986 -16.7979 15.5706 17.5466 -0.0 0.0 -0.0 10.4823 20.4922 18.1462 -29.4746 -57.2475 37.0164 0.927318 -24.6721 0.202803 25.228 0.189032 -3.19119 -0.858014 11.3245 -0.777863 -0.0 0.0 -0.0 5.93311 -10.233 -11.4802 -28.2914 44.1287 -56.0202 0.382008 10.7159 -0.0358277 11.3147 -0.259201 1.41977 0.811765 27.7103 6.48132 0.0 0.0 0.0 14.717 -18.2448 -2.67913 -21.3263 0.277518 3.24206 8.29973 28.4486 -1.26624 10.7042 -0.0 -0.0 -0.0 0.0 -0.0 18.2551 20.4703 -4.37332 -5.96701 -0.199285 -0.893664 1.03772 -7.77517 0.151487 16.7849 -0.0 -0.0 0.0 0.0 0.0 
3032.37 746.341 -391.224 -174.25 -58.091 -170.955 2.40878 -0.352984 -2.9296 2.41354 -0.165934 -2.94611 2.42136 0.333623 -2.93187 2.40939 -0.13339 -2.94776 -17.5503 11.9015 12.803 -17.3539 15.8718 16.3366 -0.0 0.0 -0.0 10.4791 20.6252 18.1161 -29.1832 -58.3459 38.2897 0.859715 -23.0678 0.175444 26.9018 0.151674 -3.40174 -0.657533 13.162 1.27815 -0.0 0.0 -0.0 5.78868 -10.3684 -11.2237 -29.4427 45.7165 -55.7073 0.457448 12.7682 -0.0511826 10.7729 -0.253219 1.35083 0.915895 28.1748 6.01815 0.0 0.0 0.0 14.6879 -18.263 -2.21717 -21.7926 0.270033 3.31321 6.18524 26.564 -0.938304 11.919 -0.0 -0.0 -0.0 0.0 -0.0 18.0722 18.5116 -4.16536 -6.3479 -0.208829 -0.951337 0.251113 -12.0372 0.0368003 18.2202 -0.0 -0.0 0.0 0.0 0.0 
3033.63 744.829 -385.994 -175.163 -57.7136 -172.36 2.28709 -0.3619 -2.78277 2.29138 -0.184163 -2.80014 2.2999 0.296892 -2.79044 2.28907 -0.147354 -2.80231 -17.4311 12.1776 13.0769 -17.2232 16.2231 16.6698 -0.0 0.0 -0.0 9.95178 20.0714 17.3687 -28.4262 -59.0194 39.6198 0.759155 -20.6094 0.138028 28.1415 0.120048 -3.55693 -0.888733 17.0272 1.49879 -0.0 0.0 -0.0 5.52721 -10.3842 -10.7648 -26.8493 46.8098 -57.4284 0.438271 12.2494 -0.047029 10.8268 -0.253844 1.35769 0.87594 28.2095 6.28881 0.0 0.0 0.0 15.3192 -17.5847 -1.85027 -24.2705 0.220555 3.69021 4.68378 26.2287 -0.711997 13.0469 -0.0 -0.0 -0.0 0.0 -0.0 18.0354 18.6417 -4.20073 -7.56603 -0.236776 -1.13618 2.05507 -15.0794 0.3013 20.3146 -0.0 -0.0 0.0 0.0 0.0 
3036.13 746.265 -376.631 -176.67 -59.0192 -173.858 2.20853 -0.403739 -2.52194 2.21204 -0.242496 -2.5425 2.22253 0.198746 -2.54629 2.21354 -0.205754 -2.54574 -17.7081 11.8464 12.1121 -17.5781 16.1848 15.7144 -0.0 0.0 -0.0 9.23906 16.1082 16.775 -26.4199 -61.6763 42.7217 0.623504 -17.1642 0.094098 30.0441 0.0649899 -3.79372 -1.15649 21.5537 1.8615 -0.0 0.0 -0.0 5.3906 -9.62513 -10.5298 -27.2937 47.5965 -56.5478 0.480712 13.3946 -0.0564481 9.95016 -0.242888 1.24624 1.17231 28.162 4.37555 0.0 0.0 0.0 15.955 -16.7027 -1.91441 -27.3953 0.134987 4.16207 1.29744 24.0305 -0.196573 14.0131 -0.0 -0.0 -0.0 0.0 -0.0 18.0564 17.7129 -4.26503 -10.989 -0.294195 -1.65821 5.15799 -17.7951 0.755194 23.9255 -0.0 -0.0 0.0 0.0 0.0 
